# xmcd
#
# Track frame offsets: 
#        150
#        17500
#        40402
#        66660
#        91762
#        112807
#        142662
#        167197
#        191540
#        211155
#        234790
#        253512
#
# Disc length: 3546 seconds
#
# Revision: 2
# Processed by: cddbd v1.4PL0 Copyright (c) Steve Scherf et al.
# Submitted via: ExactAudioCopy v0.90b4
#
DISCID=930dd80c
DTITLE=The Black Sorrows - Radio Waves Disc One
DYEAR=1996
DGENRE=Blues
TTITLE0=Last One Standing For Ya
TTITLE1=Lucky Charm
TTITLE2=Daughters Of Glory
TTITLE3=Mystified
TTITLE4=Harley And Rose
TTITLE5=Hold On To Me
TTITLE6=Never Let Me Go
TTITLE7=Come Into My Kitchen
TTITLE8=Country Girls
TTITLE9=Chosen Ones
TTITLE10=Stir It Up
TTITLE11=Hey Mama
EXTD=\nYEAR: 1996  ID3G:   0
EXTT0=
EXTT1=
EXTT2=
EXTT3=
EXTT4=
EXTT5=
EXTT6=
EXTT7=
EXTT8=
EXTT9=
EXTT10=
EXTT11=
PLAYORDER=
